<?xml version="1.0" encoding="UTF-8"?>
<svg id="Symbol" xmlns="http://www.w3.org/2000/svg" viewBox="57 57 136.5 136.5">
  <defs>
    <style>
      .cls-1 {
        fill: #ff0420;
      }
    </style>
  </defs>
  <path class="cls-1" d="M125.25,57c37.6934341,0,68.25,30.5565659,68.25,68.25s-30.5565659,68.25-68.25,68.25-68.25-30.5565659-68.25-68.25,30.5565659-68.25,68.25-68.25ZM117.1391682,139.9576782c2.9369614-2.3221859,5.003054-5.8225662,6.1982731-10.501136.7172108-2.8687141,1.3318474-5.8227001,1.8441776-8.8619728.1706924-1.0927788.2561031-1.9978405.2561031-2.7149174,0-2.390572-.597612-4.4395012-1.79296-6.1470505-1.195224-1.7417423-2.8343922-3.0394016-4.9175144-3.8931118-2.0832462-.8878983-4.4394962-1.3318474-7.0691368-1.3318474-9.6644604,0-15.6578505,4.6955994-17.9800413,14.086927-.8195196,3.4491627-1.4513197,6.4031487-1.8952688,8.8619728-.1708214,1.0927788-.2561007,2.0148701-.2561007,2.76614,0,3.5857861,1.2806297,6.351926,3.8418892,8.29842,2.5953211,1.9124298,5.925009,2.8685753,9.9888132,2.8685753,4.9176384,0,8.8449383-1.1439964,11.7817657-3.4319992ZM101.1569698,131.3005909c0-.7512699.0682522-1.4684807.2048805-2.1515034.6147705-3.3125294,1.2294121-6.1128574,1.8441776-8.4008553.5804535-2.3221909,1.5367329-4.0467747,2.8685802-5.1737415,1.3660404-1.1269718,3.0052135-1.6903908,4.9176434-1.6903908,3.2442772,0,4.8662868,1.5537624,4.8662868,4.6614113,0,.7512699-.0682472,1.4855103-.2048805,2.202721-.4097561,2.3904381-1.0073681,5.1907661-1.7928261,8.4008553-.5805824,2.3223248-1.5538914,4.0469036-2.9198029,5.1737415-1.3318474,1.1269718-2.9539909,1.6905197-4.8664207,1.6905197-3.2784702,0-4.9176384-1.5709209-4.9176384-4.7127579ZM134.75625,142.8774811c.3415089,0,.6659882-.1194748.9733089-.3585434s.4951717-.5463844.563419-.9220863l2.3563839-11.2183517h6.9154789c4.4735603,0,7.9911041-.9391209,10.5523636-2.8173576,2.5954475-1.8782417,4.3200264-4.7810101,5.1737366-8.7083099.2048805-.9219624.3073158-1.8098606.3073158-2.6636997,0-2.9710205-1.1611549-5.2419937-3.4833458-6.8129147-2.2880028-1.570916-5.3273994-2.3563789-9.118071-2.3563789h-13.6258194c-.3415089,0-.6659882.1196037-.9733089.3585434-.3073208.2390686-.4951717.5465183-.5634239.9220863l-7.0691368,33.2963829c-.0682522.3415039-.0170296.6488297.1536579.9220863.2048805.2390686.4951717.3585434.8708736.3585434h6.9665676ZM140.0324318,123.3094917l1.9466179-9.1692936h6.1470505c1.4001045,0,2.3904381.2731327,2.9710205.8195221.5805824.5123302.8708687,1.2636002.8708687,2.2539387,0,.4439491-.0512177.9562794-.1536629,1.5367329-.3415039,1.4684807-1.0587196,2.5954475-2.1514984,3.3809105-1.0587196.785458-2.3051613,1.1781895-3.739444,1.1781895h-5.8909523Z"/>
</svg>