<?xml version="1.0" encoding="UTF-8"?><svg id="Layer_2" xmlns="http://www.w3.org/2000/svg" viewBox="0 0 4305.05 512"><g id="Layer_1-2"><path fill="#FF0420" d="M3533.71,500.54h130.39l53.01-374.93h10.99l82.15,374.93h151.4l182.45-374.93h9.55l-52.54,374.93h135.16l68.78-489.07h-226.87l-172.9,353.91-77.85-353.91h-224.96l-68.78,489.07ZM3214.66,512c177.67,0,257.43-44.42,271.28-154.75,11.94-96.48-39.64-141.85-164.78-153.31l-126.09-11.46c-47.28-4.3-60.66-14.33-59.7-36.3,1.43-36.78,39.16-52.06,120.84-52.06s108.42,15.28,106.99,61.13h137.55c14.33-116.54-54.45-165.25-234.03-165.25s-253.13,46.33-266.99,155.22c-11.46,90.27,32.96,135.16,155.22,146.63l135.16,12.42c43.94,3.82,61.61,16.24,57.31,44.42-4.78,34.39-37.25,49.19-123.7,49.19-90.75,0-121.31-16.72-117.49-62.57h-138.99c-13.85,116.54,59.22,166.69,247.4,166.69ZM2739.92,500.54h139.94l68.78-489.07h-139.94l-68.78,489.07ZM1719.74,500.54h139.94L1928.45,11.46h-139.94l-68.78,489.07ZM1334.3,500.54h139.94l52.06-369.67h185.31l16.72-119.4h-520.6l-16.72,119.4h195.34l-52.06,369.67ZM772.63,261.73l19.58-140.42h145.19c56.36,0,77.85,21.97,71.64,70.21-6.69,49.19-35.34,70.21-97.91,70.21h-138.51ZM603.56,500.54h135.16l18.15-128.96h161.43c140.9,0,211.58-53.97,228.78-176.72,17.19-122.27-43.94-183.4-184.84-183.4h-289.91l-68.78,489.07ZM264.93,394.99c-99.34,0-136.6-40.6-123.22-135.16,14.33-100.78,64.96-142.81,169.07-142.81s136.12,40.6,122.75,135.16c-14.33,99.34-63.04,142.81-168.6,142.81ZM255.38,512c192.96,0,291.34-78.33,315.7-252.18C595.44,85.97,513.29,0,320.33,0S28.51,78.33,4.15,252.18c-24.36,173.85,58.27,259.82,251.22,259.82ZM1948.51,500.54h130.39l53.01-374.93h10.99l82.15,374.93h151.4l182.45-374.93h9.55l-52.54,374.93h135.16l68.78-489.07h-226.87l-172.9,353.91-77.85-353.91h-224.96l-68.78,489.07Z"/></g></svg>